# 3ds Max Wavefront OBJ Exporter v0.97b - (c)2007 guruware
# File Created: 23.04.2014 17:41:12

mtllib lampLight.mtl

#
# object Box033
#

v  -2.9907 8.2696 -28.5869
v  -2.9907 11.2696 -28.5869
v  1.9228 11.2696 -28.5869
v  1.9228 8.2696 -28.5869
v  -2.9907 3.2665 23.0000
v  1.9228 3.2665 23.0000
v  1.9228 6.2665 23.0000
v  -2.9907 6.2665 23.0000
v  -2.9907 -4.3409 1.4131
v  1.9228 -4.3409 1.4131
v  1.9228 -4.3409 8.0000
v  -2.9907 -4.3409 8.0000
v  1.9228 -1.3409 1.4131
v  1.9228 -1.3409 8.0000
v  -2.9907 -1.3409 1.4131
v  -2.9907 -1.3409 8.0000
v  -2.9907 11.2696 -13.5869
v  -2.9907 8.2696 -13.5869
v  1.9228 11.2696 -13.5869
v  1.9228 8.2696 -13.5869
v  1.2659 6.2696 -14.6329
v  -2.3338 6.2696 -14.6329
v  -2.3338 6.2696 -27.5408
v  1.2659 6.2696 -27.5408
v  -4.2724 -79.3140 9.7142
v  -4.2724 -79.3140 -0.2858
v  3.2044 -79.3140 -0.2858
v  3.2044 -79.3140 9.7142
v  -2.9907 -4.3140 8.0000
v  1.9228 -4.3140 8.0000
v  1.9228 -4.3140 1.4284
v  -2.9907 -4.3140 1.4284
v  3.2044 -59.3140 9.7142
v  -4.2724 -59.3140 9.7142
v  3.2044 -59.3140 -0.2858
v  -4.2724 -59.3140 -0.2858
v  1.9228 -54.3140 8.0000
v  -2.9907 -54.3140 8.0000
v  1.9228 -54.3140 1.4284
v  -2.9907 -54.3140 1.4284
# 40 vertices

vn 0.0000 0.0000 -1.0000
vn 0.0000 -0.0000 1.0000
vn 0.0000 -1.0000 -0.0000
vn 1.0000 0.0000 -0.0000
vn 0.0000 1.0000 0.0000
vn -1.0000 0.0000 -0.0000
vn -1.0000 -0.0000 0.0000
vn 0.0000 0.7654 0.6435
vn 0.0000 -0.7654 -0.6435
vn 0.0000 -0.4635 0.8861
vn -0.9156 -0.4022 -0.0000
vn 0.0000 -0.4635 -0.8861
vn 0.9156 -0.4022 -0.0000
vn 0.0000 -0.8919 0.4523
vn 0.0000 0.8919 -0.4523
vn 0.0000 0.0000 1.0000
vn 0.0000 -0.0000 -1.0000
vn 0.0000 0.3243 0.9460
vn 0.9460 0.3243 0.0000
vn 0.0000 0.3243 -0.9460
vn -0.9460 0.3243 0.0000
# 21 vertex normals

vt 1.0000 0.0000 0.0000
vt 1.0000 1.0000 0.0000
vt 0.0000 1.0000 0.0000
vt 0.0000 0.0000 0.0000
# 4 texture coords

g Box033
usemtl Material__3
s 2
f 1/1/1 2/2/1 3/3/1 4/4/1 
s 4
f 5/4/2 6/1/2 7/2/2 8/3/2 
s 8
f 9/4/3 10/1/3 11/2/3 12/3/3 
s 16
f 10/4/4 13/1/4 14/2/4 11/3/4 
s 32
f 13/4/5 15/1/5 16/2/5 14/3/5 
s 64
f 15/4/6 9/1/6 12/2/6 16/3/6 
s off
f 9/1/7 15/4/7 17/2/7 18/1/7 
f 15/1/8 13/4/8 19/3/8 17/2/8 
f 13/1/4 10/4/4 20/4/4 19/3/4 
f 10/1/9 9/4/9 18/1/9 20/4/9 
f 18/1/6 17/2/6 2/2/6 1/1/6 
f 17/2/5 19/3/5 3/3/5 2/2/5 
f 19/3/4 20/4/4 4/4/4 3/3/4 
f 21/4/3 22/1/3 23/1/3 24/4/3 
f 20/4/10 18/1/10 22/1/10 21/4/10 
f 18/1/11 1/1/11 23/1/11 22/1/11 
f 1/1/12 4/4/12 24/4/12 23/1/12 
f 4/4/13 20/4/13 21/4/13 24/4/13 
f 12/3/14 11/2/14 6/1/14 5/4/14 
f 11/3/4 14/2/4 7/2/4 6/1/4 
f 14/3/15 16/2/15 8/3/15 7/2/15 
f 16/3/6 12/2/6 5/4/6 8/3/6 
s 2
f 25/1/3 26/2/3 27/3/3 28/4/3 
s 4
f 29/4/5 30/1/5 31/2/5 32/3/5 
s 8
f 25/4/16 28/1/16 33/2/16 34/3/16 
s 16
f 28/4/4 27/1/4 35/2/4 33/3/4 
s 32
f 27/4/17 26/1/17 36/2/17 35/3/17 
s 64
f 26/4/6 25/1/6 34/2/6 36/3/6 
s off
f 34/3/18 33/2/18 37/1/18 38/4/18 
f 33/3/19 35/2/19 39/2/19 37/1/19 
f 35/3/20 36/2/20 40/3/20 39/2/20 
f 36/3/21 34/2/21 38/4/21 40/3/21 
f 38/4/2 37/1/2 30/1/2 29/4/2 
f 37/1/4 39/2/4 31/2/4 30/1/4 
f 39/2/1 40/3/1 32/3/1 31/2/1 
f 40/3/6 38/4/6 29/4/6 32/3/6 
# 36 polygons

